<svg fill="none" height="24" viewBox="0 0 24 24" width="24" xmlns="http://www.w3.org/2000/svg"><g fill="#000001"><path d="m11.75 10.75c.4142 0 .75.3358.75.75v2.5h2.5c.4142 0 .75.3358.75.75s-.3358.75-.75.75h-2.5v2.5c0 .4142-.3358.75-.75.75s-.75-.3358-.75-.75v-2.5h-2.5c-.41421 0-.75-.3358-.75-.75s.33579-.75.75-.75h2.5v-2.5c0-.4142.3358-.75.75-.75z"/><path clip-rule="evenodd" d="m5.75 1c-1.51878 0-2.75 1.23122-2.75 2.75v16.5c0 1.5188 1.23122 2.75 2.75 2.75h12.5c1.5188 0 2.75-1.2312 2.75-2.75v-11.58579c0-.46413-.1844-.90924-.5126-1.23743l-5.9142-5.91422c-.3282-.32819-.7733-.51256-1.2374-.51256zm-1.25 2.75c0-.69036.55964-1.25 1.25-1.25h7.25v5.75c0 .41421.3358.75.75.75h5.75v11.25c0 .6904-.5596 1.25-1.25 1.25h-12.5c-.69036 0-1.25-.5596-1.25-1.25zm13.9393 3.75-3.9393-3.93934v3.93934z" fill-rule="evenodd"/></g></svg>